<svg id="图层_6" data-name="图层 6" xmlns="http://www.w3.org/2000/svg" xmlns:xlink="http://www.w3.org/1999/xlink" preserveAspectRatio="xMinYMin meet" viewBox="0 0 720 400"><defs><style>.cls-1{fill:#1f355b;}.cls-2{fill:#f8d2cb;}.cls-3{fill:#2e67da;}.cls-4{fill:none;}.cls-5{fill:#23519b;}.cls-33,.cls-6{fill:#b0d0f9;}.cls-7{fill:url(#未命名的渐变_22);}.cls-8{fill:#215fc1;}.cls-9{fill:#3a5c85;}.cls-10{fill:#5180ad;}.cls-11{fill:#5986bb;}.cls-12{fill:#5cc5f5;}.cls-13{fill:#85b7ed;}.cls-14{fill:#dce8f7;}.cls-15{fill:#385a82;}.cls-16{fill:#4e7ba8;}.cls-17,.cls-18{fill:#376fd6;}.cls-18{opacity:0.74;}.cls-19{opacity:0.4;fill:url(#未命名的渐变_29);}.cls-20{fill:url(#未命名的渐变_37);}.cls-21{fill:url(#未命名的渐变_37-2);}.cls-22{fill:#97c3f2;}.cls-23{opacity:0.66;}.cls-24{fill:#e6f7fc;}.cls-25{fill:url(#未命名的渐变_37-3);}.cls-26{fill:url(#未命名的渐变_37-4);}.cls-27{fill:url(#未命名的渐变_37-5);}.cls-28{fill:url(#未命名的渐变_37-6);}.cls-29{fill:url(#未命名的渐变_37-7);}.cls-30{fill:url(#未命名的渐变_37-8);}.cls-31{fill:url(#未命名的渐变_37-9);}.cls-32{fill:url(#未命名的渐变_39);}.cls-33{opacity:0.5;}.cls-34{fill:#70b2f9;}</style><linearGradient id="未命名的渐变_22" x1="546.84" y1="360.3" x2="544.38" y2="499.59" gradientUnits="userSpaceOnUse"><stop offset="0" stop-color="#73a5ea"/><stop offset="1" stop-color="#5085e4"/></linearGradient><linearGradient id="未命名的渐变_29" x1="295.24" y1="247.29" x2="295.24" y2="522.44" gradientUnits="userSpaceOnUse"><stop offset="0" stop-color="#5cc5f5"/><stop offset="1" stop-color="#4578f1"/></linearGradient><linearGradient id="未命名的渐变_37" x1="343.81" y1="414.68" x2="343.81" y2="487.41" gradientUnits="userSpaceOnUse"><stop offset="0" stop-color="#5aa7eb"/><stop offset="1" stop-color="#4576e1"/></linearGradient><linearGradient id="未命名的渐变_37-2" x1="341.01" y1="416.41" x2="341.01" y2="492.36" xlink:href="#未命名的渐变_37"/><linearGradient id="未命名的渐变_37-3" x1="344.11" y1="513.99" x2="344.11" y2="586.72" xlink:href="#未命名的渐变_37"/><linearGradient id="未命名的渐变_37-4" x1="341.31" y1="515.72" x2="341.31" y2="591.67" xlink:href="#未命名的渐变_37"/><linearGradient id="未命名的渐变_37-5" x1="343.81" y1="614.32" x2="343.81" y2="687.05" xlink:href="#未命名的渐变_37"/><linearGradient id="未命名的渐变_37-6" x1="341.01" y1="616.05" x2="341.01" y2="692.01" xlink:href="#未命名的渐变_37"/><linearGradient id="未命名的渐变_37-7" x1="401.53" y1="334.52" x2="401.53" y2="425.44" xlink:href="#未命名的渐变_37"/><linearGradient id="未命名的渐变_37-8" x1="399.1" y1="336.03" x2="399.1" y2="429.75" xlink:href="#未命名的渐变_37"/><linearGradient id="未命名的渐变_37-9" x1="140.78" y1="365.28" x2="140.78" y2="595.77" xlink:href="#未命名的渐变_37"/><linearGradient id="未命名的渐变_39" x1="137.98" y1="367.01" x2="137.98" y2="600.73" xlink:href="#未命名的渐变_37"/></defs><title>111</title><path class="cls-1" d="M514.51,168.82c-1.72,2-4,4.25-4.84,5.07l-0.09-.73L506,164.21l-0.28-.69s14.54-8.63,7.21-12.09-9.21,5.47-9.21,5.47c-0.87.29-9.51-5.76-13.54-10.5s-5.76-7.21-8.91-7.78-1.59,3.32-1.59,3.32l-0.46.17c-1.52-1-12.4-9.08,8-19.94,21.87-11.6,33.39,6.72,37,21C526.65,152.56,519.62,162.85,514.51,168.82Z"/><path class="cls-2" d="M505.69,163.52l0.28,0.69,3.62,8.95,0.09,0.73,0.39,1.44,1.51,0.46c-5.16,6.38-13.53,15.24-18.69,13-7.86-3.45-3.26-12.28-3.26-12.28a2.93,2.93,0,0,0-2-1.52c1.31-.54,2.23-1,2.14-1.27-0.29-.76-2.11-0.86-4.8-1s-3.26-1.54-3.26-1.54c-3.57-3.2-3.5-14.18-3-21.64,0.29-4.17.7-7.23,0.7-7.23l-0.17-.12,0.46-.17s-1.59-3.89,1.59-3.32,4.88,3,8.91,7.78,12.66,10.79,13.54,10.5c0,0,1.87-8.92,9.21-5.47S505.69,163.52,505.69,163.52Z"/><path class="cls-3" d="M542.19,231.46l-1.41.78a0.42,0.42,0,0,1-.25,0l-15.14-1.64a0.41,0.41,0,0,0-.43.55c4.12,12.5-9.2,39.64-10.8,42.82a0.41,0.41,0,0,1-.49.21l-39.47-11.84a0.42,0.42,0,0,1-.3-0.4V215.37a0.42,0.42,0,0,0-.16-0.33l-12-9.15a0.42,0.42,0,0,1-.17-0.38c1.15-11.95,17.48-26.91,18.6-27.93a0.33,0.33,0,0,1,.14-0.08c0.6-.19,6-2.09,8.58-3.14,0.09,0,.27,1.25.65,1.91a0.41,0.41,0,0,1,0,.38c-0.61,1.29-3.84,8.94,3.35,12.1,5.1,2.24,13.33-6.39,18.5-12.75a0.42,0.42,0,0,1,.46-0.13c14.79,5.06,25.3,18.86,28.62,27,3.24,7.92,2.09,26.09,1.94,28.28A0.4,0.4,0,0,1,542.19,231.46Z"/><path class="cls-2" d="M461.54,205.75l12.38,9.42-12.42,8.62-16-4.81,16-12.42C461.49,206.29,461.51,206,461.54,205.75Z"/><line class="cls-4" x1="461.54" y1="205.75" x2="457.48" y2="202.66"/><path class="cls-5" d="M345.52,377.44L585,449.55l-97.72,65.81L244.18,442.16l94.58-63.7A8,8,0,0,1,345.52,377.44Z"/><polygon class="cls-6" points="489.71 375.18 487.33 375 487.09 377.36 490.74 380.05 493.52 382.11 499.18 372.09 489.71 375.18"/><path class="cls-7" d="M600.34,301.27L497.79,373.11a8.31,8.31,0,0,0-3.4,6.71V514.33h0a4.7,4.7,0,0,1-4.7,4.58h2.06a7.74,7.74,0,0,0,5-1.29L599.51,457.4a2.85,2.85,0,0,0,1.33-2.41l-0.4-154Z"/><path class="cls-6" d="M600.25,300.79l-320.67-97L171.7,279.49l321.2,97.21h0V513.14c0,2.52-1.74,5.31-4.21,5.62a0,0,0,1,0,0,0h1a4.46,4.46,0,0,0,4.61-4.58V375.64l106-74.37A0.27,0.27,0,0,0,600.25,300.79Z"/><path class="cls-8" d="M492.91,383.5a9.17,9.17,0,0,0-6.51-8.76L174.72,280.52a2.34,2.34,0,0,0-3,2.25v1.9a2.34,2.34,0,0,0,1.66,2.24L484.77,381a5,5,0,0,1,3.58,4.83V513.47a1.51,1.51,0,0,1-2,1.45L244.18,442.16a2.39,2.39,0,0,0,.66,3.35l243.68,73.23a2.56,2.56,0,0,0,.89,0,4.78,4.78,0,0,0,3.46-3.88,2.26,2.26,0,0,0,0-.42V383.49h0Z"/><path class="cls-9" d="M277.87,226.71l47.66,11.46h0a5.37,5.37,0,0,1-2.17,4.31l-30.83,22.87a3.34,3.34,0,0,1-2.95.5l-43.52-13.22a3.57,3.57,0,0,1-2.53-3.42v-0.36Z"/><path class="cls-10" d="M280,224.34l45.55,13.83-33,24.18a3.34,3.34,0,0,1-2.95.5l-46.06-14L276.09,225A4.41,4.41,0,0,1,280,224.34Z"/><polygon class="cls-9" points="271.22 221.47 279.56 227.01 279.56 249.66 271.23 244.11 271.22 221.47"/><path class="cls-9" d="M250.89,154.29l52-37.77a4.28,4.28,0,0,1,5.17.07l0.16,0.13-2.71,86-49.66,40.12-2.23.33a4.07,4.07,0,0,1-4.68-4V158.24A4.9,4.9,0,0,1,250.89,154.29Z"/><path class="cls-11" d="M253.61,156.41l54.56-39.69v86.73a2.7,2.7,0,0,1-1.1,2.18l-50.78,36.9a2.94,2.94,0,0,1-4.68-2.37V160.36A4.9,4.9,0,0,1,253.61,156.41Z"/><path class="cls-12" d="M257.8,160.13L303.25,127a0.83,0.83,0,0,1,1.32.66v71.61a2.66,2.66,0,0,1-1.08,2.14l-45.38,33a1.07,1.07,0,0,1-1.71-.86V162.89A3.44,3.44,0,0,1,257.8,160.13Z"/><polygon class="cls-11" points="278.93 222.64 292.11 213.27 292.11 240.29 278.94 249.66 278.93 222.64"/><polygon class="cls-13" points="266.49 170.42 317.71 132.72 317.72 139.51 266.5 177.21 266.49 170.42"/><polygon class="cls-14" points="268.92 170.42 320.14 132.72 320.15 139.51 268.93 177.21 268.92 170.42"/><polygon class="cls-13" points="267 184.08 312.35 150.79 312.36 157.58 267.01 190.87 267 184.08"/><polygon class="cls-14" points="269.43 184.08 314.78 150.79 314.79 157.58 269.44 190.87 269.43 184.08"/><polygon class="cls-13" points="267 195.12 312.35 161.83 312.36 168.62 267.01 201.91 267 195.12"/><polygon class="cls-14" points="269.43 195.12 314.78 161.83 314.79 168.62 269.44 201.91 269.43 195.12"/><line class="cls-4" x1="537.78" y1="219.93" x2="523.39" y2="221.95"/><path class="cls-15" d="M372.15,198.19L487,231.25a6.24,6.24,0,0,1,4.44,6v88.26c0,3.51-4.64,10-10.06,8L366.61,294.88a5.93,5.93,0,0,1-4.22-5.68l-3-85.06C359.73,199.83,366.44,196.64,372.15,198.19Z"/><path class="cls-11" d="M366.28,201.14l117.63,33.18a6.24,6.24,0,0,1,4.44,6v88.26a5.24,5.24,0,0,1-6.76,5L363.53,298a5.93,5.93,0,0,1-4.22-5.68v-86A5.41,5.41,0,0,1,366.28,201.14Z"/><path class="cls-15" d="M415.16,341.8h0a0.75,0.75,0,0,1-.65-0.84L421,291.28a0.75,0.75,0,0,0-.53-0.81l-11.89-3.61a0.75,0.75,0,0,0-.5,0l-1.69.68a0.75,0.75,0,0,0-.43.47l-14.35,46.36a0.75,0.75,0,0,0,.5.94l20,6.06a0.75,0.75,0,0,1,.52.81l0,0.25a0.75,0.75,0,0,0,.56.82l2.22,0.57a0.75,0.75,0,0,0,.67-0.15l20.84-12.88-0.39-.38a0.75,0.75,0,0,0-.55.15l-20.15,11.05A0.75,0.75,0,0,1,415.16,341.8Z"/><polygon class="cls-16" points="436.42 330.44 416.58 325.08 414.78 327.76 413.64 341.24 414.74 342.25 426.88 336.39 436.42 330.44"/><path class="cls-16" d="M406,287.69l12.76,3.87-6.18,50,0.47,1.71-22.77-6.88a1.22,1.22,0,0,1-.8-1.57Z"/><path class="cls-2" d="M534.62,264.35c0.09,2.21-11.6,17.56-17.75,22.07s-5.47,7.68-5.47,7.68c-0.09,4.61-2.39,5.56-2.39,5.56s-2.77,2.15-3.94,9c-2.26,13.32-5,4.13-5,4.13s1.15-9.5-.29-9.21-2.88,5.08-2.59,8.44-0.77,3-.77,3c-4.21-8,.68-12.85.68-12.85s-2.21-1.63-3.07,3.17-2.21,3.06-2.21,3.06c-1.82-11.8,8.06-18.42,12.09-21.59S514,274.32,514,274.32s15.82-30.79,10.73-43.74l15.92,1.73C541.43,245.84,534.53,262.15,534.62,264.35Z"/><path class="cls-17" d="M548.1,346.4V557.81a16.6,16.6,0,0,1-10.88,15.61,16.43,16.43,0,0,0,2.82-9.28V352.73a32.47,32.47,0,0,0-23.56-31.22l-440.87-128a19.56,19.56,0,0,0-13.18.83,19.7,19.7,0,0,1,21.24-7.15l440.87,128A32.47,32.47,0,0,1,548.1,346.4Z"/><path class="cls-18" d="M540,352.73V564.15a16.43,16.43,0,0,1-2.82,9.28,16.47,16.47,0,0,1-10.5.31l-454.66-136a19,19,0,0,1-13.55-18.2V206.21a19.5,19.5,0,0,1,3.94-11.84,19.56,19.56,0,0,1,13.18-.83l440.87,128A32.47,32.47,0,0,1,540,352.73Z"/><path class="cls-19" d="M540,352.73V564.15a16.43,16.43,0,0,1-2.82,9.28,16.61,16.61,0,0,1-18.56,6.64L64,444a19,19,0,0,1-13.56-18.2V212.54a19.76,19.76,0,0,1,25.18-19l440.87,128A32.47,32.47,0,0,1,540,352.73Z"/><path class="cls-17" d="M453.58,440.51v51.85a9.48,9.48,0,0,1-6.18,8.9A9.45,9.45,0,0,0,448,498V446.11a8.68,8.68,0,0,0-6.06-8.27L246.4,376.06c-2.14-.68-9.87,5-11.77,5.75,1.68-4.57,9.14-13.13,17.35-11.35l195.55,61.79A8.68,8.68,0,0,1,453.58,440.51Z"/><path class="cls-20" d="M448,446.11V498a9.45,9.45,0,0,1-.59,3.3,9.34,9.34,0,0,1-6.17.16L245.69,439.65a8.68,8.68,0,0,1-6.06-8.27V379.53a9.45,9.45,0,0,1,.59-3.3,9.37,9.37,0,0,1,6.18-.16l195.53,61.78A8.68,8.68,0,0,1,448,446.11Z"/><path class="cls-21" d="M448,446.11V498A9.49,9.49,0,0,1,435.64,507L240.09,445.24a8.66,8.66,0,0,1-6-8.27V385.12a9.48,9.48,0,0,1,6.18-8.9,9.37,9.37,0,0,1,6.18-.16l195.53,61.78A8.68,8.68,0,0,1,448,446.11Z"/><path class="cls-22" d="M283.47,429.58L391.7,461.27a6.12,6.12,0,0,1,4.34,5.85h0a6.12,6.12,0,0,1-7.89,5.86L279.92,441.28a6.12,6.12,0,0,1-4.34-5.85h0A6.12,6.12,0,0,1,283.47,429.58Z"/><path class="cls-6" d="M285.09,403.44l43.66,13.26a6.87,6.87,0,0,1,4.87,6.57V429a6.87,6.87,0,0,1-8.87,6.58L281.1,422.31a6.87,6.87,0,0,1-4.87-6.57V410A6.87,6.87,0,0,1,285.09,403.44Z"/><g class="cls-23"><path class="cls-24" d="M259.46,409.14c-0.32,3.68-4.27,5.7-8.45,4.75-3.8-.87-6.64-4-6.64-7.12s3-5.74,7.14-5.41C256,401.73,259.8,405.3,259.46,409.14Z"/><path class="cls-24" d="M263.83,432.82l-24.23-7-0.05-1.67c-0.15-5,4.69-8.51,11.19-7.35l1.84,0.33c7,1.24,12.38,7,11.66,12.47Z"/></g><path class="cls-17" d="M453.88,539.82v51.85a9.48,9.48,0,0,1-6.18,8.9,9.45,9.45,0,0,0,.59-3.3V545.41a8.68,8.68,0,0,0-6.06-8.27L246.7,475.37c-2.14-.68-9.87,5-11.77,5.75,1.68-4.57,9.14-13.13,17.35-11.35l195.55,61.79A8.68,8.68,0,0,1,453.88,539.82Z"/><path class="cls-25" d="M448.29,545.41v51.85a9.45,9.45,0,0,1-.59,3.3,9.34,9.34,0,0,1-6.17.16L246,539a8.68,8.68,0,0,1-6.06-8.27V478.84a9.45,9.45,0,0,1,.59-3.3,9.37,9.37,0,0,1,6.18-.16l195.53,61.78A8.68,8.68,0,0,1,448.29,545.41Z"/><path class="cls-26" d="M448.29,545.41v51.85a9.49,9.49,0,0,1-12.35,9.06L240.39,544.55a8.66,8.66,0,0,1-6-8.27V484.43a9.48,9.48,0,0,1,6.18-8.9,9.37,9.37,0,0,1,6.18-.16l195.53,61.78A8.68,8.68,0,0,1,448.29,545.41Z"/><path class="cls-22" d="M283.77,528.88L392,560.58a6.12,6.12,0,0,1,4.34,5.85h0a6.12,6.12,0,0,1-7.89,5.86L280.21,540.59a6.12,6.12,0,0,1-4.34-5.85h0A6.12,6.12,0,0,1,283.77,528.88Z"/><path class="cls-6" d="M285.39,502.75L329.05,516a6.87,6.87,0,0,1,4.87,6.57v5.72a6.87,6.87,0,0,1-8.87,6.58L281.4,521.62a6.87,6.87,0,0,1-4.87-6.57v-5.72A6.87,6.87,0,0,1,285.39,502.75Z"/><g class="cls-23"><path class="cls-24" d="M259.76,508.45c-0.32,3.68-4.27,5.7-8.45,4.75-3.8-.87-6.64-4-6.64-7.12s3-5.74,7.14-5.41C256.34,501,260.1,504.61,259.76,508.45Z"/><path class="cls-24" d="M264.13,532.13l-24.23-7-0.05-1.67c-0.15-5,4.69-8.51,11.19-7.35l1.84,0.33c7,1.24,12.38,7,11.66,12.47Z"/></g><path class="cls-17" d="M453.58,640.15V692a9.48,9.48,0,0,1-6.18,8.9,9.45,9.45,0,0,0,.59-3.3V645.75a8.68,8.68,0,0,0-6.06-8.27L246.4,575.7c-2.14-.68-9.87,5-11.77,5.75,1.68-4.57,9.14-13.13,17.35-11.35L447.53,631.9A8.68,8.68,0,0,1,453.58,640.15Z"/><path class="cls-27" d="M448,645.75V697.6a9.45,9.45,0,0,1-.59,3.3,9.34,9.34,0,0,1-6.17.16L245.69,639.29a8.68,8.68,0,0,1-6.06-8.27V579.17a9.45,9.45,0,0,1,.59-3.3,9.37,9.37,0,0,1,6.18-.16l195.53,61.78A8.68,8.68,0,0,1,448,645.75Z"/><path class="cls-28" d="M448,645.75V697.6a9.49,9.49,0,0,1-12.35,9.06L240.09,644.88a8.66,8.66,0,0,1-6-8.27V584.77a9.48,9.48,0,0,1,6.18-8.9,9.37,9.37,0,0,1,6.18-.16l195.53,61.78A8.68,8.68,0,0,1,448,645.75Z"/><path class="cls-22" d="M283.47,629.22L391.7,660.91a6.12,6.12,0,0,1,4.34,5.85h0a6.12,6.12,0,0,1-7.89,5.86L279.92,640.92a6.12,6.12,0,0,1-4.34-5.85h0A6.12,6.12,0,0,1,283.47,629.22Z"/><path class="cls-6" d="M285.09,603.08l43.66,13.26a6.87,6.87,0,0,1,4.87,6.57v5.72a6.87,6.87,0,0,1-8.87,6.58L281.1,622a6.87,6.87,0,0,1-4.87-6.57v-5.72A6.87,6.87,0,0,1,285.09,603.08Z"/><g class="cls-23"><path class="cls-24" d="M259.46,608.78c-0.32,3.68-4.27,5.7-8.45,4.75-3.8-.87-6.64-4-6.64-7.12s3-5.74,7.14-5.41C256,601.37,259.8,604.94,259.46,608.78Z"/><path class="cls-24" d="M263.83,632.46l-24.23-7-0.05-1.67c-0.15-5,4.69-8.51,11.19-7.35l1.84,0.33c7,1.24,12.38,7,11.66,12.47Z"/></g><path class="cls-17" d="M572.63,390.22v45a8.24,8.24,0,0,1-5.37,7.73,8.21,8.21,0,0,0,.51-2.87v-45a7.54,7.54,0,0,0-5.26-7.18L241.18,286.08c-1.86-.59-8.57,4.38-10.22,5,1.46-4,7.94-11.4,15.07-9.86L567.37,383.06A7.54,7.54,0,0,1,572.63,390.22Z"/><path class="cls-29" d="M567.77,395.08v45a8.21,8.21,0,0,1-.51,2.87,8.11,8.11,0,0,1-5.36.14L240.56,341.31a7.54,7.54,0,0,1-5.26-7.18v-45a8.21,8.21,0,0,1,.51-2.87,8.14,8.14,0,0,1,5.37-.14L562.51,387.9A7.54,7.54,0,0,1,567.77,395.08Z"/><path class="cls-30" d="M567.77,395.08v45A8.24,8.24,0,0,1,557,448L235.7,346.17a7.52,7.52,0,0,1-5.25-7.18v-45a8.24,8.24,0,0,1,5.37-7.73,8.14,8.14,0,0,1,5.37-.14L562.51,387.9A7.54,7.54,0,0,1,567.77,395.08Z"/><path class="cls-17" d="M208.83,280.89V632.1a9.48,9.48,0,0,1-6.18,8.9,9.45,9.45,0,0,0,.59-3.3V286.49a8.68,8.68,0,0,0-6.06-8.27l-112.1-36.3c-2.14-.68-9.87,5-11.77,5.75,1.68-4.57,9.14-13.13,17.35-11.35l112.11,36.31A8.68,8.68,0,0,1,208.83,280.89Z"/><path class="cls-31" d="M203.24,286.49V637.69a9.45,9.45,0,0,1-.59,3.3,9.34,9.34,0,0,1-6.17.16L84.37,604.86a8.68,8.68,0,0,1-6.06-8.27V245.39a9.45,9.45,0,0,1,.59-3.3,9.37,9.37,0,0,1,6.18-.16l112.1,36.3A8.68,8.68,0,0,1,203.24,286.49Z"/><path class="cls-32" d="M203.24,286.49V637.69a9.49,9.49,0,0,1-12.35,9.06L78.77,610.46a8.66,8.66,0,0,1-6-8.27V251a9.48,9.48,0,0,1,6.18-8.9,9.37,9.37,0,0,1,6.18-.16l112.1,36.3A8.68,8.68,0,0,1,203.24,286.49Z"/><path class="cls-33" d="M94.12,276.67l87.32,26.25a6.87,6.87,0,0,1,4.87,6.57v26.45a6.87,6.87,0,0,1-8.87,6.58L90.13,316.26a6.87,6.87,0,0,1-4.87-6.57V283.25A6.87,6.87,0,0,1,94.12,276.67Z"/><path class="cls-33" d="M94.12,326.89l87.32,26.25a6.87,6.87,0,0,1,4.87,6.57v26.45a6.87,6.87,0,0,1-8.87,6.58L90.13,366.49a6.87,6.87,0,0,1-4.87-6.57V333.47A6.87,6.87,0,0,1,94.12,326.89Z"/><path class="cls-33" d="M94.12,432l87.32,26.25a6.87,6.87,0,0,1,4.87,6.57v8a6.87,6.87,0,0,1-8.87,6.58L90.13,453.14a6.87,6.87,0,0,1-4.87-6.57v-8A6.87,6.87,0,0,1,94.12,432Z"/><path class="cls-33" d="M94.12,412.49L151.68,430a6.87,6.87,0,0,1,4.87,6.57v0a6.87,6.87,0,0,1-8.87,6.58L90.13,425.6A6.87,6.87,0,0,1,85.25,419v0A6.87,6.87,0,0,1,94.12,412.49Z"/><path class="cls-33" d="M94.12,495l87.32,26.25a6.87,6.87,0,0,1,4.87,6.57v8a6.87,6.87,0,0,1-8.87,6.58L90.13,516.12a6.87,6.87,0,0,1-4.87-6.57v-8A6.87,6.87,0,0,1,94.12,495Z"/><path class="cls-33" d="M94.12,475.47L151.68,493a6.87,6.87,0,0,1,4.87,6.57v0a6.87,6.87,0,0,1-8.87,6.58L90.13,488.58A6.87,6.87,0,0,1,85.25,482v0A6.87,6.87,0,0,1,94.12,475.47Z"/><path class="cls-33" d="M94.12,557.93l87.32,26.25a6.87,6.87,0,0,1,4.87,6.57v8a6.87,6.87,0,0,1-8.87,6.58L90.13,579.11a6.87,6.87,0,0,1-4.87-6.57v-8A6.87,6.87,0,0,1,94.12,557.93Z"/><path class="cls-33" d="M94.12,538.46L151.68,556a6.87,6.87,0,0,1,4.87,6.57v0a6.87,6.87,0,0,1-8.87,6.58L90.13,551.57A6.87,6.87,0,0,1,85.25,545v0A6.87,6.87,0,0,1,94.12,538.46Z"/><path class="cls-6" d="M255.38,299.08L299,312.34a6.87,6.87,0,0,1,4.87,6.57v10.72a6.87,6.87,0,0,1-8.87,6.58l-43.66-13.26a6.87,6.87,0,0,1-4.87-6.57V305.66A6.87,6.87,0,0,1,255.38,299.08Z"/><path class="cls-6" d="M250.94,332l21.83,6.63a3.44,3.44,0,0,1,2.44,3.29v0.36a3.44,3.44,0,0,1-4.43,3.29l-21.83-6.63a3.44,3.44,0,0,1-2.44-3.29v-0.36A3.44,3.44,0,0,1,250.94,332Z"/><path class="cls-34" d="M330.39,322.52l43.66,13.26a6.87,6.87,0,0,1,4.87,6.57v10.72a6.87,6.87,0,0,1-8.87,6.58L326.4,346.39a6.87,6.87,0,0,1-4.87-6.57V329.1A6.87,6.87,0,0,1,330.39,322.52Z"/><path class="cls-34" d="M326,355.39L347.79,362a3.44,3.44,0,0,1,2.44,3.29v0.36a3.44,3.44,0,0,1-4.43,3.29L324,362.33a3.44,3.44,0,0,1-2.44-3.29v-0.36A3.44,3.44,0,0,1,326,355.39Z"/><path class="cls-34" d="M408,347.65l43.66,13.26a6.87,6.87,0,0,1,4.87,6.57V378.2a6.87,6.87,0,0,1-8.87,6.58L404,371.52a6.87,6.87,0,0,1-4.87-6.57V354.23A6.87,6.87,0,0,1,408,347.65Z"/><path class="cls-34" d="M403.54,380.52l21.83,6.63a3.44,3.44,0,0,1,2.44,3.29v0.36a3.44,3.44,0,0,1-4.43,3.29l-21.83-6.63a3.44,3.44,0,0,1-2.44-3.29v-0.36A3.44,3.44,0,0,1,403.54,380.52Z"/><path class="cls-34" d="M487.65,374.21l43.66,13.26a6.87,6.87,0,0,1,4.87,6.57v10.72a6.87,6.87,0,0,1-8.87,6.58l-43.66-13.26a6.87,6.87,0,0,1-4.87-6.57V380.79A6.87,6.87,0,0,1,487.65,374.21Z"/><path class="cls-34" d="M483.22,407.08L505,413.71a3.44,3.44,0,0,1,2.44,3.29v0.36a3.44,3.44,0,0,1-4.43,3.29L481.22,414a3.44,3.44,0,0,1-2.44-3.29v-0.36A3.44,3.44,0,0,1,483.22,407.08Z"/></svg>
